<svg viewBox="0 0 542 107" fill="none" xmlns="http://www.w3.org/2000/svg">
<path d="M89.2283 64.5624C87.1158 61.2763 83.4776 59.2811 79.5754 59.2811C70.5092 59.2811 65.0519 69.3155 69.9224 76.9147L85.8249 101.707C87.9374 104.993 91.5756 106.989 95.4778 106.989C104.544 106.989 110.001 96.9541 105.131 89.355L89.2283 64.5624Z" fill="black"/>
<path d="M21.3073 43.0828C23.4198 46.3689 27.058 48.364 30.9603 48.364C40.0264 48.364 45.4837 38.3296 40.6132 30.7305L24.7108 5.93788C22.5983 2.65176 18.9601 0.656616 15.0578 0.656616C5.99162 0.656616 0.534318 10.691 5.40482 18.2902L21.3073 43.0828Z" fill="black"/>
<path d="M88.2017 48.2151L106.07 20.4591C111.586 11.8917 105.424 0.625 95.2434 0.625C90.8716 0.625 86.7933 2.85487 84.4168 6.52241L57.9811 47.5989C55.6045 51.2664 51.5262 53.4963 47.1545 53.4963H31.3107C26.939 53.4963 22.8607 55.7262 20.4841 59.3937L2.61587 87.1497C-2.90012 95.7171 3.26135 106.984 13.4425 106.984C17.8142 106.984 21.8925 104.754 24.269 101.086L50.7047 60.0099C53.0813 56.3423 57.1596 54.1125 61.5313 54.1125H77.3751C81.7468 54.1125 85.8251 51.8826 88.2017 48.2151Z" fill="black"/>
<path d="M110.586 62.0681C115.14 62.0681 118.831 58.3769 118.831 53.8235C118.831 49.2701 115.14 45.5789 110.586 45.5789C106.033 45.5789 102.342 49.2701 102.342 53.8235C102.342 58.3769 106.033 62.0681 110.586 62.0681Z" fill="black"/>
<path d="M426.908 36.5033C424.062 36.5033 421.744 38.8211 421.744 41.6672V67.1346C421.627 69.7752 419.455 71.8877 416.785 71.8877H367.347C364.618 71.8877 362.418 69.6579 362.388 66.9585V40.5816C362.388 37.8823 364.618 35.6817 367.318 35.6524H412.414C415.26 35.6524 417.578 33.3345 417.578 30.4885C417.578 27.6425 415.26 25.3246 412.414 25.3246H362.887C356.902 25.3246 352.061 30.1364 352.061 36.0632V71.477C352.061 77.4037 356.931 82.2449 362.887 82.2449H421.245C427.231 82.2449 432.072 77.4331 432.072 71.477V41.6378C432.072 38.7918 429.754 36.4739 426.908 36.4739V36.5033Z" fill="black"/>
<path d="M235.314 48.2084H162.667C159.968 48.2084 157.768 50.4089 157.768 53.1083V76.4338C157.768 79.1332 159.968 81.3337 162.667 81.3337H163.196C165.895 81.3337 168.095 79.1332 168.095 76.4338V63.4067C168.095 60.7074 170.296 58.5069 172.995 58.5069H235.343C238.043 58.5069 240.243 56.3064 240.243 53.607V53.0789C240.243 50.3796 238.043 48.1791 235.343 48.1791L235.314 48.2084Z" fill="black"/>
<path d="M303.443 61.2984C302.651 60.7997 301.712 60.5063 300.685 60.5063C299.659 60.5063 298.69 60.7997 297.898 61.3278L267.648 80.5751C265.213 82.1008 262.015 81.3966 260.489 78.9907C258.963 76.5554 259.668 73.3573 262.074 71.8316C262.074 71.8316 274.485 63.9391 284.137 57.7776C285.546 56.8387 286.514 55.2543 286.514 53.4059C286.514 51.5575 285.575 49.9731 284.137 49.0635L264.597 36.6232C263.746 36.0951 262.778 35.8017 261.78 35.8017H163.255C160.439 35.8017 157.857 33.6892 157.739 30.8725C157.622 27.9091 159.646 25.4739 162.58 25.4739H264.773C265.77 25.4739 266.739 25.7673 267.59 26.2954L339.004 71.7143C341.322 73.2106 342.378 76.262 341.058 78.6973C340.119 80.4577 338.329 81.4553 336.481 81.4553C335.542 81.4553 334.574 81.1912 333.693 80.6337L303.385 61.3571L303.443 61.2984Z" fill="black"/>
<path d="M318.086 48.4785C315.65 50.0042 312.452 49.3 310.927 46.8941C309.401 44.4589 310.105 41.2608 312.511 39.7351L333.665 26.2679C336.101 24.7422 339.299 25.4463 340.824 27.8522C342.35 30.2875 341.646 33.4856 339.24 35.0113L318.086 48.4785Z" fill="black"/>
<path d="M451.525 25.5026C448.679 25.5026 446.361 27.8205 446.361 30.6665V76.8482C446.361 79.6942 448.679 82.0121 451.525 82.0121C454.371 82.0121 456.689 79.6942 456.689 76.8482V30.6665C456.689 27.8205 454.371 25.5026 451.525 25.5026Z" fill="black"/>
<path d="M536.288 25.4739C533.442 25.4739 531.124 27.7918 531.124 30.6378V58.0123C531.124 59.274 530.713 60.5356 529.862 61.5918C528.19 63.675 525.52 64.2325 523.202 63.1175L473.147 32.6916C470.712 31.1952 467.514 31.9874 466.047 34.4227C464.551 36.8579 465.343 40.056 467.778 41.523L533.031 81.1619C533.882 81.6606 534.792 81.9247 535.701 81.9247C535.701 81.9247 535.701 81.9247 535.73 81.9247C535.907 81.9247 536.112 81.9834 536.288 81.9834C539.134 81.9834 541.452 79.6655 541.452 76.8195V30.6378C541.452 27.7918 539.134 25.4739 536.288 25.4739Z" fill="black"/>
</svg>
