<?xml version="1.0" encoding="iso-8859-1"?>
<!-- Generator: Adobe Illustrator 19.0.0, SVG Export Plug-In . SVG Version: 6.00 Build 0)  -->
<svg version="1.1" id="Layer_1" xmlns="http://www.w3.org/2000/svg" xmlns:xlink="http://www.w3.org/1999/xlink" x="0px" y="0px"
	 viewBox="0 0 511.984 511.984" style="enable-background:new 0 0 511.984 511.984;" xml:space="preserve">
<g>
	<g>
		<path d="M408.643,47.998H103.341c-30.511,0-55.342,24.815-55.342,55.326v305.318c0,30.511,24.831,55.342,55.342,55.342h305.302
			c30.511,0,55.342-24.831,55.342-55.358V103.325C463.986,72.814,439.154,47.998,408.643,47.998z M431.987,408.643
			c0,12.864-10.464,23.343-23.343,23.343H103.341c-12.88,0-23.343-10.48-23.343-23.359V103.325
			c0-12.864,10.464-23.327,23.343-23.327h305.302c12.88,0,23.343,10.464,23.343,23.327V408.643z"/>
	</g>
</g>
<g>
	<g>
		<path d="M191.994,0c-8.848,0-16,7.168-16,16v47.998c0,8.832,7.152,16,16,16s16-7.168,16-16V16C207.994,7.168,200.842,0,191.994,0z
			"/>
	</g>
</g>
<g>
	<g>
		<path d="M127.996,0c-8.848,0-16,7.168-16,16v47.998c0,8.832,7.152,16,16,16c8.848,0,15.999-7.168,15.999-16V16
			C143.995,7.168,136.844,0,127.996,0z"/>
	</g>
</g>
<g>
	<g>
		<path d="M383.988,0c-8.848,0-16,7.168-16,16v47.998c0,8.832,7.152,16,16,16c8.848,0,15.999-7.168,15.999-16V16
			C399.987,7.168,392.836,0,383.988,0z"/>
	</g>
</g>
<g>
	<g>
		<path d="M319.99,0c-8.848,0-16,7.168-16,16v47.998c0,8.832,7.152,16,16,16s16-7.168,16-16V16C335.99,7.168,328.838,0,319.99,0z"/>
	</g>
</g>
<g>
	<g>
		<path d="M255.992,0c-8.848,0-16,7.168-16,16v47.998c0,8.832,7.152,16,16,16s16-7.168,16-16V16C271.992,7.168,264.84,0,255.992,0z"
			/>
	</g>
</g>
<g>
	<g>
		<path d="M191.994,431.987c-8.848,0-16,7.168-16,16v47.998c0,8.832,7.152,16,16,16s16-7.168,16-16v-47.998
			C207.994,439.154,200.842,431.987,191.994,431.987z"/>
	</g>
</g>
<g>
	<g>
		<path d="M127.996,431.987c-8.848,0-16,7.168-16,16v47.998c0,8.832,7.152,16,16,16c8.848,0,15.999-7.168,15.999-16v-47.998
			C143.995,439.154,136.844,431.987,127.996,431.987z"/>
	</g>
</g>
<g>
	<g>
		<path d="M383.988,431.987c-8.848,0-16,7.168-16,16v47.998c0,8.832,7.152,16,16,16c8.848,0,15.999-7.168,15.999-16v-47.998
			C399.987,439.154,392.836,431.987,383.988,431.987z"/>
	</g>
</g>
<g>
	<g>
		<path d="M319.99,431.987c-8.848,0-16,7.168-16,16v47.998c0,8.832,7.152,16,16,16s16-7.168,16-16v-47.998
			C335.99,439.154,328.838,431.987,319.99,431.987z"/>
	</g>
</g>
<g>
	<g>
		<path d="M255.992,431.987c-8.848,0-16,7.168-16,16v47.998c0,8.832,7.152,16,16,16s16-7.168,16-16v-47.998
			C271.992,439.154,264.84,431.987,255.992,431.987z"/>
	</g>
</g>
<g>
	<g>
		<path d="M63.998,303.99H16c-8.848,0-16,7.168-16,16s7.152,16,16,16h47.998c8.848,0,16-7.168,16-16S72.846,303.99,63.998,303.99z"
			/>
	</g>
</g>
<g>
	<g>
		<path d="M63.998,367.989H16c-8.848,0-16,7.168-16,15.999c0,8.832,7.152,16,16,16h47.998c8.848,0,16-7.168,16-16
			C79.997,375.156,72.846,367.989,63.998,367.989z"/>
	</g>
</g>
<g>
	<g>
		<path d="M63.998,111.997H16c-8.848,0-16,7.168-16,15.999c0,8.832,7.152,16,16,16h47.998c8.848,0,16-7.168,16-16
			C79.997,119.164,72.846,111.997,63.998,111.997z"/>
	</g>
</g>
<g>
	<g>
		<path d="M63.998,175.995H16c-8.848,0-16,7.168-16,16s7.152,16,16,16h47.998c8.848,0,16-7.168,16-16S72.846,175.995,63.998,175.995
			z"/>
	</g>
</g>
<g>
	<g>
		<path d="M63.998,239.992H16c-8.848,0-16,7.168-16,16s7.152,16,16,16h47.998c8.848,0,16-7.168,16-16S72.846,239.992,63.998,239.992
			z"/>
	</g>
</g>
<g>
	<g>
		<path d="M495.984,303.99h-47.998c-8.848,0-16,7.168-16,16s7.152,16,16,16h47.998c8.848,0,16-7.168,16-16
			S504.832,303.99,495.984,303.99z"/>
	</g>
</g>
<g>
	<g>
		<path d="M495.984,367.989h-47.998c-8.848,0-16,7.168-16,15.999c0,8.832,7.152,16,16,16h47.998c8.848,0,16-7.168,16-16
			C511.984,375.156,504.832,367.989,495.984,367.989z"/>
	</g>
</g>
<g>
	<g>
		<path d="M495.984,111.997h-47.998c-8.848,0-16,7.168-16,15.999c0,8.832,7.152,16,16,16h47.998c8.848,0,16-7.168,16-16
			C511.984,119.164,504.832,111.997,495.984,111.997z"/>
	</g>
</g>
<g>
	<g>
		<path d="M495.984,175.995h-47.998c-8.848,0-16,7.168-16,16s7.152,16,16,16h47.998c8.848,0,16-7.168,16-16
			S504.832,175.995,495.984,175.995z"/>
	</g>
</g>
<g>
	<g>
		<path d="M495.984,239.992h-47.998c-8.848,0-16,7.168-16,16s7.152,16,16,16h47.998c8.848,0,16-7.168,16-16
			S504.832,239.992,495.984,239.992z"/>
	</g>
</g>
<g>
</g>
<g>
</g>
<g>
</g>
<g>
</g>
<g>
</g>
<g>
</g>
<g>
</g>
<g>
</g>
<g>
</g>
<g>
</g>
<g>
</g>
<g>
</g>
<g>
</g>
<g>
</g>
<g>
</g>
</svg>
