<svg width="39" height="39" viewBox="0 0 39 39" fill="none" xmlns="http://www.w3.org/2000/svg">
<path d="M19.5 38.5293C22.0853 38.5293 24.516 38.0345 26.792 37.0449C29.0804 36.0553 31.0967 34.6885 32.8408 32.9443C34.585 31.2002 35.9518 29.1901 36.9414 26.9141C37.931 24.6257 38.4258 22.1888 38.4258 19.6035C38.4258 17.0182 37.931 14.5876 36.9414 12.3115C35.9518 10.0231 34.585 8.00684 32.8408 6.2627C31.0967 4.51855 29.0804 3.15169 26.792 2.16211C24.5036 1.17253 22.0667 0.677734 19.4814 0.677734C16.8962 0.677734 14.4593 1.17253 12.1709 2.16211C9.89486 3.15169 7.88477 4.51855 6.14062 6.2627C4.40885 8.00684 3.04818 10.0231 2.05859 12.3115C1.06901 14.5876 0.574219 17.0182 0.574219 19.6035C0.574219 22.1888 1.06901 24.6257 2.05859 26.9141C3.04818 29.1901 4.41504 31.2002 6.15918 32.9443C7.90332 34.6885 9.91341 36.0553 12.1895 37.0449C14.4779 38.0345 16.9147 38.5293 19.5 38.5293ZM19.1289 23.5742C18.1022 23.5742 17.5889 23.0671 17.5889 22.0527C17.5889 22.0156 17.5889 21.9785 17.5889 21.9414C17.5889 21.8919 17.5889 21.8486 17.5889 21.8115C17.5889 20.859 17.8177 20.0983 18.2754 19.5293C18.7331 18.9603 19.3021 18.4346 19.9824 17.9521C20.8236 17.3708 21.4482 16.876 21.8564 16.4678C22.2646 16.0472 22.4688 15.5091 22.4688 14.8535C22.4688 14.1237 22.2028 13.5361 21.6709 13.0908C21.1514 12.6455 20.4587 12.4229 19.5928 12.4229C19.1722 12.4229 18.7826 12.4909 18.4238 12.627C18.0651 12.763 17.7373 12.9609 17.4404 13.2207C17.1436 13.4805 16.8776 13.7959 16.6426 14.167L16.3086 14.6309C16.1354 14.8535 15.9375 15.0391 15.7148 15.1875C15.4922 15.3236 15.2201 15.3916 14.8984 15.3916C14.5768 15.3916 14.2738 15.2803 13.9893 15.0576C13.7048 14.8226 13.5625 14.4948 13.5625 14.0742C13.5625 13.9134 13.5749 13.7526 13.5996 13.5918C13.6367 13.431 13.68 13.2764 13.7295 13.1279C14.0016 12.2373 14.651 11.4642 15.6777 10.8086C16.7168 10.153 18.0651 9.8252 19.7227 9.8252C20.8112 9.8252 21.8132 10.0107 22.7285 10.3818C23.6562 10.7529 24.4046 11.3034 24.9736 12.0332C25.5426 12.7507 25.8271 13.6413 25.8271 14.7051C25.8271 15.8555 25.5241 16.7646 24.918 17.4326C24.3242 18.1006 23.5635 18.7376 22.6357 19.3438C21.9678 19.7767 21.473 20.1911 21.1514 20.5869C20.8298 20.9704 20.6689 21.4342 20.6689 21.9785C20.6689 22.0033 20.6689 22.0404 20.6689 22.0898C20.6689 22.127 20.6689 22.1641 20.6689 22.2012C20.6689 22.5846 20.5329 22.9124 20.2607 23.1846C19.9886 23.4443 19.6113 23.5742 19.1289 23.5742ZM19.0732 29.2705C18.529 29.2705 18.0465 29.0788 17.626 28.6953C17.2178 28.3118 17.0137 27.8418 17.0137 27.2852C17.0137 26.7409 17.2178 26.2708 17.626 25.875C18.0342 25.4792 18.5166 25.2812 19.0732 25.2812C19.6423 25.2812 20.1309 25.4792 20.5391 25.875C20.9473 26.2585 21.1514 26.7285 21.1514 27.2852C21.1514 27.8418 20.9411 28.3118 20.5205 28.6953C20.1123 29.0788 19.6299 29.2705 19.0732 29.2705Z" fill="#B9B9C3"/>
</svg>
