<svg width="180" height="21" viewBox="0 0 180 21" fill="none" xmlns="http://www.w3.org/2000/svg">
<path d="M0.829767 4.65909V0.363636H17.8965V4.65909H11.9903V20H6.73602V4.65909H0.829767ZM46.0926 7.72727H40.685C40.6466 7.27983 40.5443 6.87393 40.3782 6.50959C40.2184 6.14524 39.9946 5.83203 39.707 5.56996C39.4257 5.30149 39.0838 5.09695 38.6811 4.95632C38.2784 4.8093 37.8213 4.73579 37.31 4.73579C36.4151 4.73579 35.6576 4.95312 35.0376 5.38778C34.424 5.82244 33.9573 6.44567 33.6377 7.25746C33.3245 8.06925 33.1679 9.04403 33.1679 10.1818C33.1679 11.3835 33.3277 12.3903 33.6473 13.2021C33.9733 14.0075 34.4431 14.6147 35.0568 15.0238C35.6704 15.4265 36.4087 15.6278 37.2716 15.6278C37.7638 15.6278 38.2049 15.5671 38.5948 15.4457C38.9847 15.3178 39.3235 15.1357 39.6111 14.8991C39.8987 14.6626 40.1321 14.3782 40.311 14.0458C40.4964 13.707 40.621 13.3267 40.685 12.9048L46.0926 12.9432C46.0287 13.7741 45.7954 14.6211 45.3927 15.484C44.99 16.3406 44.4179 17.1332 43.6764 17.8619C42.9414 18.5842 42.0305 19.1658 40.9438 19.6069C39.8572 20.0479 38.5948 20.2685 37.1566 20.2685C35.354 20.2685 33.7368 19.8817 32.305 19.1083C30.8796 18.3349 29.7514 17.1971 28.9204 15.695C28.0958 14.1928 27.6835 12.3551 27.6835 10.1818C27.6835 7.99574 28.1054 6.15483 28.9492 4.65909C29.7929 3.15696 30.9307 2.02237 32.3625 1.25533C33.7943 0.481888 35.3924 0.0951697 37.1566 0.0951697C38.3966 0.0951697 39.5376 0.264559 40.5795 0.603337C41.6214 0.942116 42.5355 1.4375 43.3217 2.08949C44.1079 2.73508 44.7407 3.53089 45.2201 4.47692C45.6995 5.42294 45.9904 6.50639 46.0926 7.72727ZM48.5112 20V0.363636H53.8422V8.30256H54.1107L60.0169 0.363636H66.23L59.595 9.10795L66.3834 20H60.0169L55.6064 12.6364L53.8422 14.9375V20H48.5112ZM67.812 20V0.363636H76.2879C77.7453 0.363636 79.0205 0.628906 80.1135 1.15945C81.2065 1.68999 82.0567 2.45384 82.6639 3.45099C83.2712 4.44815 83.5748 5.64347 83.5748 7.03693C83.5748 8.44318 83.2616 9.62891 82.6352 10.5941C82.0151 11.5593 81.1426 12.288 80.0176 12.7802C78.899 13.2724 77.5918 13.5185 76.0961 13.5185H71.0336V9.37642H75.0222C75.6487 9.37642 76.1824 9.29972 76.6234 9.14631C77.0709 8.98651 77.4129 8.73402 77.6494 8.38885C77.8923 8.04368 78.0137 7.59304 78.0137 7.03693C78.0137 6.47443 77.8923 6.0174 77.6494 5.66584C77.4129 5.30788 77.0709 5.04581 76.6234 4.87962C76.1824 4.70703 75.6487 4.62074 75.0222 4.62074H73.143V20H67.812ZM79.3177 10.9872L84.2268 20H78.4356L73.6416 10.9872H79.3177ZM85.8472 0.363636H92.4821L97.046 11.4858H97.2761L101.84 0.363636H108.475V20H103.259V8.64773H103.106L98.7335 19.8466H95.5886L91.2165 8.57102H91.0631V20H85.8472V0.363636ZM111.001 20V0.363636H125.153V4.65909H116.332V8.03409H124.425V12.3295H116.332V15.7045H125.115V20H111.001ZM127.26 4.65909V0.363636H144.327V4.65909H138.421V20H133.167V4.65909H127.26ZM146.333 20V0.363636H160.485V4.65909H151.664V8.03409H159.757V12.3295H151.664V15.7045H160.447V20H146.333ZM163.129 20V0.363636H171.605C173.063 0.363636 174.338 0.628906 175.431 1.15945C176.524 1.68999 177.374 2.45384 177.981 3.45099C178.589 4.44815 178.892 5.64347 178.892 7.03693C178.892 8.44318 178.579 9.62891 177.953 10.5941C177.333 11.5593 176.46 12.288 175.335 12.7802C174.216 13.2724 172.909 13.5185 171.413 13.5185H166.351V9.37642H170.34C170.966 9.37642 171.5 9.29972 171.941 9.14631C172.388 8.98651 172.73 8.73402 172.967 8.38885C173.21 8.04368 173.331 7.59304 173.331 7.03693C173.331 6.47443 173.21 6.0174 172.967 5.66584C172.73 5.30788 172.388 5.04581 171.941 4.87962C171.5 4.70703 170.966 4.62074 170.34 4.62074H168.46V20H163.129ZM174.635 10.9872L179.544 20H173.753L168.959 10.9872H174.635Z" fill="black"/>
<path d="M25.2338 0.363636V20H19.9028V0.363636H25.2338Z" fill="#0EB663"/>
</svg>
